<svg width="108" height="108" viewBox="0 0 198 198" fill-rule="evenodd" xmlns="http://www.w3.org/2000/svg" xmlns:xlink="http://www.w3.org/1999/xlink">
    <path fill="#010101" d="M 88.5,-0.5 C 97.1667,-0.5 105.833,-0.5 114.5,-0.5C 160.5,8.83333 188.167,36.5 197.5,82.5C 197.5,91.1667 197.5,99.8333 197.5,108.5C 188.346,154.487 160.679,181.987 114.5,191C 74.306,194.981 42.806,180.481 20,147.5C 5.04167,122.456 1.375,95.7894 9,67.5C 22.2112,29.1107 48.7112,6.44405 88.5,-0.5 Z M 89.5,5.5 C 133.748,2.63474 165.581,20.9681 185,60.5C 200.021,105.427 188.854,142.261 151.5,171C 124.49,187.197 96.1568,189.864 66.5,179C 24.2897,157.752 6.45637,123.585 13,76.5C 23.9885,37.0056 49.4885,13.3389 89.5,5.5 Z"/>
    <path fill="#000000" d="M 93.5,37.5 C 111.977,34.9788 124.477,42.3122 131,59.5C 131.5,67.4931 131.666,75.4931 131.5,83.5C 137.739,82.5356 142.239,84.8689 145,90.5C 145.667,107.167 145.667,123.833 145,140.5C 143.5,143.333 141.333,145.5 138.5,147C 113.833,147.667 89.1667,147.667 64.5,147C 61.6667,145.5 59.5,143.333 58,140.5C 57.3333,123.833 57.3333,107.167 58,90.5C 60.7615,84.8689 65.2615,82.5356 71.5,83.5C 71.0863,74.4178 71.5863,65.4178 73,56.5C 77.0472,47.0761 83.8805,40.7427 93.5,37.5 Z M 95.5,43.5 C 87.6901,45.8428 82.1901,50.8428 79,58.5C 76.8835,66.6881 76.0501,75.0215 76.5,83.5C 93.1667,83.5 109.833,83.5 126.5,83.5C 126.747,76.1124 126.247,68.779 125,61.5C 120.042,47.7614 110.209,41.7614 95.5,43.5 Z M 69.5,88.5 C 66.1849,89.652 64.0183,91.9853 63,95.5C 62.3333,108.833 62.3333,122.167 63,135.5C 63.3459,137.848 64.5125,139.681 66.5,141C 88.7696,142.634 111.103,142.968 133.5,142C 135.848,141.654 137.681,140.487 139,138.5C 140.615,124.235 140.948,109.902 140,95.5C 139.654,93.1523 138.487,91.3189 136.5,90C 114.233,88.532 91.8995,88.032 69.5,88.5 Z"/>
</svg>